# xmcd
#
# Track frame offsets:
# 150
# 21970
# 43181
# 57169
# 81783
# 98072
#
# Disc length: 1647 seconds
#
# Revision: 0
# Processed by: cddbd v1.5.2PL0 Copyright (c) Steve Scherf et al.
# Submitted via: Audion 3.0.2 (http://www.panic.com/audion/)
#
DISCID=44066d06
DTITLE=kojima Mayumi - Merry! Go! Round!
DYEAR=1900
DGENRE=
TTITLE0=Merry! Go! Round!
TTITLE1=Pablo-no Koibito[Live]
TTITLE2=Swing#2[Live]
TTITLE3=Kuroneko[Live]
TTITLE4=Ushiro-ni-Kiwotsukero![Live]
TTITLE5=Electra[Live]
EXTD=
EXTT0=
EXTT1=
EXTT2=
EXTT3=
EXTT4=
EXTT5=
PLAYORDER=
